<svg width="331" height="137" viewBox="0 0 331 137" fill="none" xmlns="http://www.w3.org/2000/svg">
<path opacity="0.5" fill-rule="evenodd" clip-rule="evenodd" d="M89.5746 116.837L39.2813 116.837C17.5868 116.837 -1.70039e-08 99.2498 -1.32871e-08 77.5554C-9.57034e-09 55.8609 17.5868 38.2741 39.2813 38.2741L86.633 38.2741C87.1673 17.0451 104.544 4.77133e-08 125.902 5.13724e-08L291.084 4.98699e-08C312.779 5.35867e-08 330.366 17.5868 330.366 39.2813C330.366 50.8775 325.341 61.3001 317.35 68.4905C325.341 75.6809 330.366 86.1034 330.366 97.6996C330.366 119.394 312.779 136.981 291.084 136.981L123.887 136.981C109.141 136.981 96.2919 128.855 89.5746 116.837Z" fill="#EDECEC"/>
</svg>
